<svg id="visual" viewBox="0 0 900 450" width="900" height="450" xmlns="http://www.w3.org/2000/svg" xmlns:xlink="http://www.w3.org/1999/xlink" version="1.1"><rect x="0" y="0" width="900" height="450" fill="#001220"></rect><defs><linearGradient id="grad1_0" x1="50%" y1="100%" x2="100%" y2="0%"><stop offset="10%" stop-color="#001220" stop-opacity="1"></stop><stop offset="90%" stop-color="#001220" stop-opacity="1"></stop></linearGradient></defs><defs><linearGradient id="grad2_0" x1="0%" y1="100%" x2="50%" y2="0%"><stop offset="10%" stop-color="#001220" stop-opacity="1"></stop><stop offset="90%" stop-color="#001220" stop-opacity="1"></stop></linearGradient></defs><g transform="translate(900, 450)"><path d="M-315 0C-315.5 -46.1 -316.1 -92.3 -291 -120.5C-266 -148.8 -215.4 -159.2 -183.8 -183.8C-152.3 -208.5 -140 -247.4 -112.5 -271.6C-85.1 -295.9 -42.5 -305.4 0 -315L0 0Z" fill="#FBAE3C"></path></g><g transform="translate(0, 0)"><path d="M315 0C283.8 29.9 252.6 59.7 242.1 100.3C231.5 140.8 241.6 192.1 222.7 222.7C203.9 253.4 156 263.4 114 275.3C72.1 287.3 36 301.1 0 315L0 0Z" fill="#FBAE3C"></path></g></svg>