<svg id="visual" viewBox="0 0 900 450" width="900" height="450" xmlns="http://www.w3.org/2000/svg" xmlns:xlink="http://www.w3.org/1999/xlink" version="1.1"><path d="M0 299L30 299.7C60 300.3 120 301.7 180 316.5C240 331.3 300 359.7 360 371.5C420 383.3 480 378.7 540 360.8C600 343 660 312 720 298.2C780 284.3 840 287.7 870 289.3L900 291L900 451L870 451C840 451 780 451 720 451C660 451 600 451 540 451C480 451 420 451 360 451C300 451 240 451 180 451C120 451 60 451 30 451L0 451Z" fill="#FBAE3C" stroke-linecap="round" stroke-linejoin="miter"></path></svg>